<?xml version="1.0" encoding="UTF-8"?>
<!DOCTYPE svg PUBLIC "-//W3C//DTD SVG 1.1//EN" "http://www.w3.org/Graphics/SVG/1.1/DTD/svg11.dtd">
<!-- Creator: CorelDRAW X6 -->
<svg xmlns="http://www.w3.org/2000/svg" xml:space="preserve" width="49.1866mm" height="42.3834mm" version="1.1" style="shape-rendering:geometricPrecision; text-rendering:geometricPrecision; image-rendering:optimizeQuality; fill-rule:evenodd; clip-rule:evenodd"
viewBox="0 0 192 165"
 xmlns:xlink="http://www.w3.org/1999/xlink">
 <defs>
  <style type="text/css">
   <![CDATA[
    .case-fil3 {fill:#E31E24}
    .case-fil0 {fill:#FFED00}
    .case-fil2 {fill:#828486}
    .case-fil5 {fill:#FFA000}
    .case-fil1 {fill:#E31E24;fill-rule:nonzero}
    .case-fil4 {fill:#FEFEFE;fill-rule:nonzero}
    .case-fil6 {fill:#3C3C3D;fill-rule:nonzero}
   ]]>
  </style>
 </defs>
 <g id="case">
  <path class="case-fil0" d="M181 74l0 73c0,4 -1,7 -3,9 -2,2 -5,3 -9,3l-139 0 0 -71 0 -4 0 -78 137 0 4 0c3,0 6,0 8,1 0,0 0,0 0,0l0 68c1,0 1,-1 2,-1zm-2 -67c1,0 1,0 2,0 -1,0 -1,0 -2,0zm2 0c0,0 0,0 0,0 0,0 0,0 0,0zm0 0c0,1 1,1 1,1 0,0 -1,0 -1,-1zm2 2c0,0 0,0 0,0 0,0 0,0 0,0z"/>
  <path class="case-fil1" d="M97 34c5,0 9,2 13,4 3,3 5,7 5,11 0,4 -2,8 -5,11 -4,3 -8,4 -13,4 -5,0 -10,-1 -13,-4 -4,-3 -6,-7 -6,-11 0,-4 2,-8 6,-11 3,-2 8,-4 13,-4z"/>
  <rect class="case-fil2" x="17" y="83" width="6.59302" height="18.3373" rx="2" ry="2"/>
  <rect class="case-fil2" x="17" y="107" width="6.59302" height="22.6642" rx="2" ry="3"/>
  <rect class="case-fil2" x="170" y="83" width="6.59302" height="18.3373" rx="2" ry="2"/>
  <rect class="case-fil2" x="170" y="107" width="6.59302" height="22.6642" rx="2" ry="3"/>
  <rect class="case-fil2" transform="matrix(4.58667E-014 -1 2.39551 3.66342E-014 51.5858 156.334)" width="6.59302" height="16.385" rx="2" ry="2"/>
  <rect class="case-fil2" transform="matrix(4.58667E-014 -1 2.39551 3.66342E-014 102.683 156.334)" width="6.59302" height="16.385" rx="2" ry="2"/>
  <path class="case-fil3" d="M19 137l3 0c1,0 2,1 2,2l0 11 11 0c1,0 2,1 2,2l0 2c0,1 -1,2 -2,2l-13 0 -3 0c-1,0 -2,-1 -2,-2l0 -2 0 -13c0,-1 1,-2 2,-2z"/>
  <path class="case-fil3" d="M174 137l-2 0c-2,0 -2,1 -2,2l0 11 -11 0c-2,0 -3,1 -3,2l0 2c0,1 1,2 3,2l13 0 2 0c1,0 2,-1 2,-2l0 -2 0 -13c0,-1 -1,-2 -2,-2z"/>
  <path class="case-fil4" d="M105 43c-2,-2 -5,-3 -8,-3 -4,0 -7,1 -9,3 -2,2 -3,4 -3,6 0,3 1,5 3,6 2,2 5,3 9,3 3,0 6,-1 8,-3 2,-1 3,-3 3,-6 0,-2 -1,-4 -3,-6z"/>
  <path class="case-fil5" d="M179 70l0 -63c4,0 7,3 7,8l0 51c0,0 -3,2 -7,4z"/>
  <path class="case-fil5" d="M176 157l0 -80c2,-1 4,-2 5,-3l0 73c0,4 -1,7 -3,9 -1,0 -1,1 -2,1z"/>
  <path class="case-fil6" d="M192 66l-5 4 0 77c0,5 -2,10 -5,13 -3,3 -8,5 -13,5l-147 0c-5,0 -9,-2 -12,-5 -4,-3 -6,-8 -6,-13l0 -77c-2,-2 -4,-3 -4,-4l0 -51c0,-16 12,-15 25,-15 12,0 142,0 142,0 14,0 25,0 25,15l0 51zm-182 8l0 73c0,4 2,7 4,9 2,2 5,3 8,3l147 0c4,0 7,-1 9,-3 2,-2 3,-5 3,-9l0 -73c-18,9 -68,37 -85,36 -22,1 -89,-38 -86,-36zm176 -8l0 -51c0,-9 -8,-9 -19,-9l-143 0c-10,0 -18,0 -18,9l0 51c105,50 79,48 180,0z"/>
 </g>
</svg>
